<?xml version="1.0" encoding="UTF-8"?> <!-- Generator: Adobe Illustrator 24.0.1, SVG Export Plug-In . SVG Version: 6.00 Build 0) --> <svg xmlns="http://www.w3.org/2000/svg" xmlns:xlink="http://www.w3.org/1999/xlink" x="0px" y="0px" viewBox="0 0 200.51 83.63" style="enable-background:new 0 0 200.51 83.63;" xml:space="preserve"> <style type="text/css"> .st0{display:none;} .st1{display:inline;} .st2{fill:none;stroke:#000000;stroke-width:2;stroke-miterlimit:10;} </style> <g id="_x31_" class="st0"> <g class="st1"> <path d="M106.16,49.71c-6.05-0.72-14.22,2.75-14.57,2.9l-0.61,0.26v29.46h2V72.19c0.16-0.09,0.36-0.19,0.57-0.31 c3.36-1.8,12.3-6.58,15.45-11.41c1.35-2.07,2.25-5.47,1.04-8.06C109.32,50.86,107.98,49.93,106.16,49.71z M107.33,59.38 c-2.77,4.24-10.87,8.67-14.35,10.54V54.2c1.97-0.77,8.31-3.06,12.93-2.5c1.13,0.13,1.88,0.65,2.31,1.56 C108.97,54.83,108.58,57.47,107.33,59.38z"></path> <path d="M161.78,13.89c-4.65,0-8.44,3.78-8.44,8.44s3.78,8.44,8.44,8.44s8.44-3.78,8.44-8.44S166.43,13.89,161.78,13.89z M161.78,28.76c-3.55,0-6.44-2.89-6.44-6.44s2.89-6.44,6.44-6.44s6.44,2.89,6.44,6.44S165.33,28.76,161.78,28.76z"></path> <path d="M154.41,49.77c1.35-2.07,2.25-5.47,1.04-8.06c-0.72-1.55-2.07-2.48-3.89-2.7c-6.05-0.72-14.22,2.75-14.57,2.9l-0.61,0.26 v40.17h2V61.48c0.16-0.09,0.36-0.19,0.57-0.31c1.14-0.61,2.92-1.57,4.9-2.75l11.08,24.02l2.16-0.05l-11.52-25.02 C149,55.21,152.63,52.5,154.41,49.77z M138.39,59.21V43.5c1.97-0.77,8.3-3.06,12.93-2.5c1.13,0.13,1.88,0.65,2.31,1.56 c0.74,1.57,0.35,4.21-0.9,6.12C149.97,52.92,141.87,57.35,138.39,59.21z"></path> <polygon points="111.59,48.56 111.55,50.36 120.95,48.01 120.95,82.33 122.95,82.33 122.95,47.51 132.83,45.05 132.82,43.33 "></polygon> <rect x="161.85" y="36.73" width="2" height="45.6"></rect> <path d="M151.83,25.79L87.92,43.36c0.01-0.43,0.03-0.85,0.03-1.28c0-22.4-18.22-40.62-40.62-40.62 c-22.4,0-40.62,18.22-40.62,40.62c0,8.04,2.36,15.53,6.4,21.84l-21.4,5.88l0.53,1.93l22.06-6.06 c7.37,10.3,19.43,17.03,33.03,17.03c21.25,0,38.74-16.41,40.46-37.23l64.56-17.74L151.83,25.79z M47.34,80.7 c-12.67,0-23.94-6.14-30.98-15.59l69.4-19.07C83.77,65.47,67.3,80.7,47.34,80.7z M85.91,43.91L15.14,63.36 c-4.05-6.11-6.42-13.42-6.42-21.28c0-21.29,17.32-38.62,38.62-38.62s38.62,17.32,38.62,38.62C85.96,42.69,85.94,43.31,85.91,43.91 z"></path> <path d="M186.06,4.74c-5.04-3.65-12.17-3.43-17.9-3.26l-1.35,0.04c-7.28,0.19-14.58,0.87-21.43,1.56 c-14.82,1.48-29.85,3.24-44.39,4.95L90.92,9.21l0.01,2.01l10.29-1.2c14.53-1.7,29.55-3.47,44.35-4.95 c6.81-0.68,14.07-1.36,21.28-1.55l1.36-0.04c5.71-0.17,12.18-0.37,16.67,2.88c1.11,0.8,1.76,2,1.64,3.04 c-0.48,4.39-6.99,6.93-11.74,8.79c-1.17,0.46-2.28,0.89-3.18,1.31l0.84,1.82c0.85-0.39,1.93-0.81,3.07-1.26 c5.23-2.04,12.39-4.84,13-10.44C188.71,7.85,187.77,5.98,186.06,4.74z"></path> </g> </g> <g id="_x32_" class="st0"> <g class="st1"> <path d="M121,47.22c-6.31-0.75-14.72,2.82-15.08,2.97l-1.21,0.52v30.12h4v-9.54c0.01-0.01,0.03-0.01,0.04-0.02 c5.83-3.12,12.9-7.27,15.82-11.74c1.5-2.29,2.48-6.1,1.11-9.03C124.81,48.64,123.15,47.47,121,47.22z M121.22,57.34 c-2.28,3.5-8.76,7.34-12.51,9.4V53.39c2.39-0.89,7.82-2.68,11.82-2.2c1,0.12,1.34,0.59,1.53,0.99 C122.65,53.45,122.28,55.71,121.22,57.34z"></path> <path d="M176.51,11.39c-5.2,0-9.43,4.23-9.43,9.44s4.23,9.44,9.43,9.44c5.2,0,9.44-4.23,9.44-9.44S181.71,11.39,176.51,11.39z M176.51,26.26c-3,0-5.43-2.44-5.43-5.44s2.44-5.44,5.43-5.44s5.44,2.44,5.44,5.44S179.5,26.26,176.51,26.26z"></path> <path d="M170.54,48.82c1.49-2.29,2.48-6.1,1.1-9.03c-0.87-1.85-2.53-3.01-4.68-3.27c-6.32-0.75-14.72,2.82-15.08,2.97l-1.21,0.52 v40.82h4V60.58c0.02-0.01,0.03-0.02,0.05-0.03c1.29-0.69,2.65-1.44,4-2.22l10.59,22.47l3.74-0.04l-10.92-24.5 C165.64,53.99,168.82,51.46,170.54,48.82z M154.68,56.03V42.68c2.81-1.05,8.09-2.64,11.82-2.19c1,0.12,1.34,0.59,1.53,0.99 c0.59,1.27,0.23,3.53-0.83,5.15C164.91,50.13,158.42,53.97,154.68,56.03z"></path> <polygon points="127.52,49.83 135.68,47.69 135.68,80.83 139.68,80.83 139.68,46.65 147.8,44.52 147.83,40.64 127.56,45.95 "></polygon> <polygon points="175.58,80.83 179.58,80.83 179.58,33.23 175.58,34.23 "></polygon> <path d="M166.96,25.74l-0.27-0.96l-63.05,17.33c0.02-0.51,0.04-1.01,0.04-1.53c0-22.95-18.67-41.62-41.62-41.62 c-22.95,0-41.62,18.67-41.62,41.62c0,8.31,2.46,16.05,6.67,22.56L6.58,68.79l0.27,0.96l20.86-5.73 C35.2,74.98,47.81,82.2,62.07,82.2c22.08,0,40.19-17.29,41.53-39.04L166.96,25.74z M24.45,40.58c0-20.74,16.87-37.62,37.62-37.62 s37.62,16.87,37.62,37.62c0,0.89-0.04,1.77-0.1,2.64l-68.39,18.8C26.95,55.93,24.45,48.54,24.45,40.58z M62.07,78.2 c-12.4,0-23.41-6.03-30.26-15.31l67.7-18.61C97.63,63.29,81.56,78.2,62.07,78.2z"></path> <path d="M200.5,3.64c-4.9-3.55-11.93-3.33-17.59-3.16l-1.36,0.04c-7.26,0.19-14.55,0.87-21.39,1.56 c-10.21,1.02-23.28,2.9-35.91,4.71c-10.17,1.46-19.79,2.84-27.81,3.78l0.12,0.99c8.04-0.94,17.66-2.32,27.84-3.78 c12.63-1.81,25.68-3.69,35.87-4.71c6.82-0.68,14.09-1.36,21.32-1.55l1.36-0.04c5.79-0.17,12.36-0.37,16.98,2.97 c1.25,0.91,1.98,2.28,1.85,3.5c-0.51,4.69-7.18,7.3-12.05,9.2c-1.16,0.46-2.26,0.89-3.15,1.3l0.42,0.91 c0.86-0.4,1.95-0.82,3.1-1.27c5.11-2,12.11-4.73,12.68-10.03C202.96,6.16,201.72,4.53,200.5,3.64z"></path> </g> </g> <g id="_x33_" class="st0"> <g class="st1"> <polygon points="165.76,25.68 -8.22,69.07 -8.21,73.54 167.76,29.15 "></polygon> <path d="M24.29,57.64l3.95-0.98c0,0-0.08-0.17-0.12-0.26c-2.18-4.76-3.39-10.04-3.39-15.61c0-20.74,16.87-37.62,37.62-37.62 c19.87,0,36.2,15.49,37.53,35.03c0,0.05,0.01,0.14,0.01,0.14l3.94-0.99c0,0-0.01-0.08-0.01-0.12C102,15.95,84.1-0.83,62.34-0.83 c-22.95,0-41.62,18.67-41.62,41.62c0,5.93,1.25,11.57,3.49,16.68C24.24,57.52,24.29,57.64,24.29,57.64z"></path> <path d="M98.72,50.39C94.46,66.49,79.77,78.4,62.34,78.4c-10.95,0-20.83-4.7-27.71-12.2c-0.06-0.06-0.17-0.19-0.17-0.19l-4.33,1.1 c0,0,0.09,0.11,0.14,0.17c7.64,9.23,19.18,15.12,32.07,15.12c20.05,0,36.84-14.26,40.75-33.17c0.01-0.06,0.04-0.18,0.04-0.18 s-4.33,1.21-4.38,1.22C98.76,50.28,98.73,50.35,98.72,50.39z"></path> <path d="M123.39,48.45c-0.03,0-0.3-0.01-0.56-0.02c-0.27-0.01-0.92,0.08-0.92,0.08l-15.93,3.85l0.05,30.06h4l-0.03-9.93 c0.01-0.01,0.03-0.01,0.04-0.02c5.83-3.12,12.9-7.27,15.82-11.74c1.5-2.29,2.53-6.2,1.35-9.22 C126.48,49.67,125.44,48.76,123.39,48.45z M122.5,58.54c-2.28,3.5-8.76,7.34-12.51,9.4l-0.01-12.68l10.78-2.64 c0,0,0.82-0.2,1.32-0.14c1,0.12,1.08,0.5,1.26,0.9C123.92,54.66,123.56,56.92,122.5,58.54z"></path> <path d="M171.78,49.62c1.5-2.29,2.53-6.2,1.35-9.22c-0.72-1.85-1.76-2.76-3.81-3.06c-0.03,0-0.3-0.01-0.56-0.02 c-0.27-0.01-0.92,0.08-0.92,0.08l-15.93,3.85l0.01,41.24h4v-21.1c0.01-0.01,0.03-0.01,0.04-0.02c2.1-1.12,4.36-2.38,6.53-3.74 l6.78,24.86l3.91,0.02l-7.21-27.22C168.4,53.5,170.49,51.59,171.78,49.62z M155.92,56.84l-0.01-12.68l10.78-2.64 c0,0,0.82-0.2,1.32-0.14c1,0.12,1.08,0.5,1.26,0.9c0.59,1.27,0.23,3.53-0.83,5.15C166.15,50.93,159.67,54.77,155.92,56.84z"></path> <path d="M178.47,13.18c-4.95,0-8.97,4.02-8.97,8.97s4.02,8.97,8.97,8.97c4.95,0,8.97-4.02,8.97-8.97S183.42,13.18,178.47,13.18z M178.47,27.32c-2.85,0-5.17-2.32-5.17-5.17c0-2.85,2.32-5.17,5.17-5.17c2.85,0,5.17,2.32,5.17,5.17 C183.64,25,181.32,27.32,178.47,27.32z"></path> <polygon points="130.79,46.81 130.78,50.68 131.64,50.46 137.6,48.9 137.62,82.42 141.62,82.42 141.6,47.85 148.44,46.06 148.51,42.17 131.61,46.6 "></polygon> <polygon points="176.87,35.12 176.93,82.42 180.93,82.42 180.85,34.14 "></polygon> </g> </g> <g id="_x34_"> <g> <g> <path class="st2" d="M51.58,44.78"></path> </g> </g> <g> <path d="M177.36,8.79c-4.76,0-8.64,3.87-8.64,8.64c0,4.76,3.88,8.64,8.64,8.64s8.64-3.87,8.64-8.64 C186,12.66,182.12,8.79,177.36,8.79z M177.36,22.61c-2.86,0-5.18-2.32-5.18-5.18c0-2.86,2.32-5.18,5.18-5.18s5.18,2.32,5.18,5.18 C182.54,20.28,180.21,22.61,177.36,22.61z"></path> <path d="M23.33,55.75c0.03,0.08,0.08,0.23,0.08,0.23s3.78-0.98,3.75-1.08c-0.02-0.05-0.04-0.1-0.06-0.15 c-1.36-3.66-2.1-7.61-2.23-11.66c-0.62-20.34,15.4-37.48,35.85-38.1c18.36-0.56,33.99,12.44,37.44,29.9 c0,0.02,0.01,0.07,0.01,0.07l3.77-1.05c0,0-0.01-0.06-0.02-0.08c-3.9-19.2-21.1-33.37-41.32-32.75 C38.09,1.76,20.27,20.7,20.96,43.21C21.09,47.65,21.93,51.82,23.33,55.75z"></path> <path d="M98.57,45.95c-1.93,18.1-17.01,32.42-35.6,32.99c-12.22,0.37-23.35-5.31-30.37-14.32c-0.02-0.02-0.05-0.06-0.05-0.06 l-4.02,1.17c0,0,0.03,0.04,0.04,0.05c7.67,10.7,20.36,17.51,34.53,17.08c21.22-0.65,38.12-17.43,39.53-38.08 c0-0.04,0.01-0.11,0.01-0.11l-4.05,1.15C98.59,45.81,98.58,45.91,98.57,45.95z"></path> <polygon points="129.36,46.96 130.22,46.74 136.18,45.18 136.2,82.78 140.2,82.71 140.18,44.13 147.02,42.34 147.14,38.23 129.35,43.31 "></polygon> <path d="M122.16,45.13c-6.31-0.75-14.72,2.82-15.08,2.97l-1.21,0.52v34.16l4-0.07V69.2c0.01-0.01,0.03-0.01,0.04-0.02 c5.83-3.12,12.9-7.27,15.82-11.74c1.5-2.29,2.48-6.1,1.11-9.03C125.97,46.55,124.31,45.38,122.16,45.13z M122.38,55.25 c-2.28,3.5-8.76,7.34-12.51,9.4V51.3c2.39-0.89,7.82-2.68,11.82-2.2c1,0.12,1.34,0.59,1.53,0.99 C123.81,51.36,123.44,53.62,122.38,55.25z"></path> <polygon points="176.25,82.64 180.25,82.5 180.25,29.92 176.25,30.94 "></polygon> <path d="M164.25,51.98c2.57-1.85,4.8-3.84,6.14-5.89c1.49-2.29,2.48-6.1,1.1-9.03c-0.87-1.85-2.53-3.01-4.68-3.27 c-6.32-0.75-14.72,2.82-15.08,2.97l-1.21,0.52v45.5l4-0.07V57.86c0.02-0.01,0.03-0.02,0.05-0.03c1.29-0.69,2.65-1.44,4-2.22 l2.18-1.33l1.18,3.96l6.64,24.38l3.89-0.07l-6.79-25.62L164.25,51.98z M154.53,53.31V39.96c2.81-1.05,8.09-2.64,11.82-2.19 c1,0.12,1.34,0.59,1.53,0.99c0.59,1.27,0.23,3.53-0.83,5.15C164.76,47.4,158.28,51.24,154.53,53.31z"></path> <polygon points="165.67,23.38 165.62,19.52 0.88,65.72 0.9,70.18 163.77,23.87 "></polygon> <path d="M199.85,5.57c-0.47-1.98-1.44-6.09-29.3-3.58c-16.46,1.49-38.76,4.92-64.58,9.93c-0.06,0.01-0.17,0.03-0.17,0.03 l-0.04,4.08c0,0,0.15-0.02,0.15-0.02c60.18-11.74,86.8-12.1,89.94-9.52c-0.28,0.49-1.48,2-6.61,4.74c-0.03,0.02-0.1,0.05-0.1,0.05 l0.07,4.43c0.1-0.05,0.67-0.31,0.76-0.35C197.6,11.46,200.54,8.53,199.85,5.57z"></path> </g> <g> <g> <path class="st2" d="M25.96,34.72"></path> </g> </g> </g> <g id="_x35_" class="st0"> <g class="st1"> <path d="M177.24,7.66c-4.76,0-8.64,3.87-8.64,8.64s3.88,8.64,8.64,8.64s8.64-3.87,8.64-8.64S182,7.66,177.24,7.66z M177.24,21.48 c-2.86,0-5.18-2.32-5.18-5.18s2.32-5.18,5.18-5.18s5.18,2.32,5.18,5.18S180.09,21.48,177.24,21.48z"></path> <polygon points="129.24,43.44 130.1,43.21 136.06,41.65 136.08,81.65 140.08,81.6 140.06,40.61 146.9,38.81 147.02,34.7 129.23,39.78 "></polygon> <path d="M122.23,42.53c-6.31-0.75-14.72,2.82-15.08,2.97l-1.21,0.52v35.6l4-0.02V66.6c0.01-0.01,0.03-0.01,0.04-0.02 c5.83-3.12,12.9-7.27,15.82-11.74c1.5-2.29,2.48-6.1,1.11-9.03C126.04,43.95,124.38,42.79,122.23,42.53z M122.45,52.65 c-2.28,3.5-8.76,7.34-12.51,9.4V48.7c2.39-0.89,7.82-2.68,11.82-2.2c1,0.12,1.34,0.59,1.53,0.99 C123.87,48.76,123.51,51.02,122.45,52.65z"></path> <polygon points="176.12,29.81 176.09,81.62 180.11,81.6 180.04,29.8 "></polygon> <path d="M163.63,49.14c2.78-1.95,5.21-4.06,6.64-6.25c1.49-2.29,2.48-6.1,1.1-9.03c-0.87-1.85-2.53-3.01-4.68-3.27 c-6.32-0.75-14.72,2.82-15.08,2.97l-1.21,0.52v47.4l4,0.02V54.66c0.02-0.01,0.03-0.02,0.05-0.03c1.29-0.69,2.65-1.44,4-2.22 l1.67-1.02l1.68,5.73l6.64,24.38l3.89-0.07l-6.79-25.62L163.63,49.14z M154.41,50.11V36.76c2.81-1.05,8.09-2.64,11.82-2.19 c1,0.12,1.34,0.59,1.53,0.99c0.59,1.27,0.23,3.53-0.83,5.15C164.64,44.2,158.16,48.05,154.41,50.11z"></path> <polygon points="166.44,23.22 166.29,19.37 2.86,70.01 3,74.48 164.55,23.77 "></polygon> <path d="M24.55,59.22c0.08,0.15,0.32,0.58,0.32,0.58l3.8-1.21c0,0-0.14-0.26-0.21-0.38c-2.79-5.2-4.37-11.14-4.37-17.45 c0-20.43,16.62-37.06,37.06-37.06c19.1,0,34.87,14.53,36.85,33.11c0.01,0.11,0.03,0.34,0.03,0.34l3.84-1.19 c0,0-0.04-0.34-0.06-0.5C99.2,15.34,81.96-0.25,61.15-0.25c-22.61,0-41,18.39-41,41c0,5.61,1.13,10.97,3.18,15.84 C23.71,57.48,24.12,58.36,24.55,59.22z"></path> <path d="M97.38,48.58c-0.11,0.52-0.23,1.03-0.37,1.54c-4.16,15.91-18.66,27.69-35.86,27.69c-9.75,0-18.64-3.79-25.26-9.97 c-0.07-0.07-0.22-0.21-0.22-0.21l-4.26,1.31c0,0,0.2,0.21,0.3,0.31c7.46,7.7,17.9,12.5,29.45,12.5 c19.54,0,35.93-13.74,40.02-32.06c0.18-0.79,0.33-1.58,0.46-2.39c0.02-0.12,0.06-0.37,0.06-0.37l-4.22,1.23 C97.46,48.17,97.4,48.44,97.38,48.58z"></path> </g> </g> </svg> 